<?xml version="1.0" standalone="no"?>
<!DOCTYPE svg PUBLIC "-//W3C//DTD SVG 20010904//EN"
 "http://www.w3.org/TR/2001/REC-SVG-20010904/DTD/svg10.dtd">
<svg version="1.0" xmlns="http://www.w3.org/2000/svg"
 width="700.000000pt" height="700.000000pt" viewBox="0 0 700.000000 700.000000"
 preserveAspectRatio="xMidYMid meet">
<metadata>
Created by potrace 1.11, written by Peter Selinger 2001-2013
</metadata>
<g transform="translate(0.000000,700.000000) scale(0.100000,-0.100000)"
fill="#000000" stroke="none">
<path d="M1882 6601 c-15 -16 -102 -140 -235 -335 -27 -39 -55 -80 -63 -91 -8
-11 -46 -65 -84 -120 -38 -55 -77 -111 -87 -125 -10 -13 -103 -149 -208 -302
-504 -735 -468 -674 -469 -808 0 -126 21 -173 183 -407 41 -60 77 -110 81
-113 3 -3 41 -57 83 -120 43 -63 122 -178 175 -256 53 -77 145 -210 204 -295
116 -169 149 -208 191 -226 l27 -13 0 -995 c0 -943 1 -995 18 -995 16 0 17
-27 17 -447 0 -502 -1 -499 73 -545 34 -21 45 -22 299 -23 157 0 277 4 296 10
46 15 56 59 28 118 -18 37 -30 47 -69 62 -176 64 -260 101 -279 121 -28 30
-37 77 -29 146 4 29 8 67 10 83 2 17 7 57 11 90 3 33 8 74 10 90 2 17 7 51 10
77 17 149 20 174 60 478 9 63 18 133 21 155 4 37 11 85 19 145 2 14 6 45 10
70 3 25 8 56 10 70 2 14 7 50 10 80 4 30 10 82 15 115 5 33 12 80 15 105 8 72
25 195 30 218 2 11 6 47 10 79 3 32 7 69 10 83 2 14 7 45 10 70 4 25 8 56 10
70 2 14 9 63 15 110 6 47 14 103 17 125 3 22 6 45 6 52 0 8 106 13 411 16 436
4 478 8 595 59 67 29 162 100 211 159 93 110 149 163 177 165 39 3 236 13 378
20 66 3 152 7 190 9 39 2 78 4 87 4 9 1 18 9 20 18 2 13 15 17 53 19 28 1 104
5 170 8 66 4 165 9 220 11 55 3 145 7 200 10 55 2 156 7 225 10 69 3 159 8
200 10 41 2 143 7 225 10 244 11 261 13 323 38 92 37 155 91 196 170 20 38 34
72 31 77 -3 4 -46 9 -97 10 -51 1 -122 3 -158 5 -36 2 -144 6 -240 9 -171 6
-332 12 -555 21 -60 2 -191 7 -290 11 -99 3 -216 7 -260 10 -44 2 -201 6 -350
9 -148 3 -295 10 -325 16 -58 12 -173 60 -130 55 35 -5 126 20 169 46 47 28
368 344 389 383 69 131 36 306 -79 417 -90 86 -223 106 -354 53 -98 -39 -120
-56 -281 -216 -171 -169 -187 -197 -188 -317 l-1 -83 -69 73 c-325 347 -394
416 -403 407 -6 -6 -42 26 -90 78 -45 49 -98 106 -119 129 -42 44 -246 263
-285 305 -13 15 -76 82 -140 150 -64 68 -128 138 -143 154 -191 209 -259 275
-279 270 -17 -4 -26 1 -37 22 -13 23 -15 75 -15 300 1 287 -3 307 -43 264z
m-77 -778 c38 -62 147 -209 175 -233 3 -3 35 -41 70 -85 36 -44 68 -82 71 -85
3 -3 45 -52 92 -110 48 -58 93 -112 100 -120 7 -8 69 -82 138 -165 68 -82 134
-161 145 -175 78 -91 120 -142 185 -226 30 -38 56 -71 59 -74 3 -3 34 -43 69
-89 63 -84 63 -84 58 -140 -20 -236 -233 -443 -480 -467 l-65 -6 -199 167
c-109 92 -214 181 -233 197 -19 17 -55 46 -79 66 -24 21 -153 129 -286 242
-133 113 -265 225 -294 249 -61 52 -81 86 -81 139 0 47 9 64 219 437 50 88
135 249 188 357 54 108 99 197 100 197 1 1 23 -34 48 -76z"/>
</g>
</svg>
