<?xml version="1.0" encoding="utf-8"?>
<!-- Generator: Adobe Illustrator 24.0.1, SVG Export Plug-In . SVG Version: 6.00 Build 0)  -->
<svg version="1.1" id="Layer_1" xmlns="http://www.w3.org/2000/svg" xmlns:xlink="http://www.w3.org/1999/xlink" x="0px" y="0px"
	 viewBox="0 0 20 20" style="enable-background:new 0 0 20 20;" xml:space="preserve">
<style type="text/css">
	.st0{fill:#4691FF;}
	.st1{fill:#8AB9FF;}
	.st2{fill:#0BA089;}
	.st3{fill:#11FFDA;}
	.st4{fill:#CCF8FF;}
</style>
<title>Extensions/Software/Video-Sensing-Menu</title>
<desc>Created with Sketch.</desc>
<path class="st0" d="M6.7,18.9H5.3c-0.2,0-0.4-0.2-0.4-0.4l0-2.5l0-5.4c0-0.1,0-0.2,0-0.3c0-0.3,0.2-0.6,0.4-0.8C5.6,9.1,6,9,6.4,9
	h0.5l-0.2,1.8l0,0L6,16l-0.2,1.7c0,0.1,0,0.3,0.2,0.4l0.8,0.3C7,18.6,7,18.9,6.7,18.9z"/>
<path class="st0" d="M17.9,8.5l-0.2,0.4c-0.2,0.2-0.5,0.4-0.8,0.4l-4.2,0.2l-2,0.1L10.3,10c-0.5,0.7-1.1,0.8-2,0.8H6.6l0.1-1
	l0.1-0.6V9H7c0.8,0,1.5-0.7,1.5-1.5L7.8,6.6l-2.5-3L5,3.1l0.7-0.3L5.9,3l2.7,2.9l0,0l1.8,1.9c0.3,0.3,0.8,0.5,1.2,0.5h0.9L17.9,8.5z
	"/>
<path class="st1" d="M5.9,3v0.1c0,0.1-0.1,0.2-0.2,0.2H5.5c0,0-0.1,0-0.2,0L5,3.1l0.7-0.3L5.9,3z"/>
<g>
	<path class="st0" d="M6.9,9l-1.1,1.6c-0.2,0-0.6-0.1-0.9-0.3c-0.1-0.1-0.3-0.2-0.4-0.3l-2-2.9C2,6.6,2,6,2.3,5.6l1.5-2.2l1.6-2.3
		c0,0,0.1,0,0.1,0l0,1.6C5.7,2.9,5.6,3,5.5,3H5.3C5.1,3,5,3.1,5,3.2L4.6,4L3.6,5.8C3.5,6,3.6,6.2,3.7,6.3c0.5,0.4,1.3,1.1,1.3,1.1
		C6.8,8.9,6.9,9,6.9,9L6.9,9z"/>
	<path class="st0" d="M7.1,9.4L6.8,9.8l0.1-0.6C7,9.3,7.1,9.4,7.1,9.4L7.1,9.4z"/>
	<path class="st0" d="M10.3,6.4l0.6-0.6c0.4-0.4,1-0.4,1.4,0c0.4,0.4,0.4,1,0,1.4l-0.6,0.6c-0.4,0.4-1,0.4-1.4,0
		C9.9,7.4,9.9,6.7,10.3,6.4z"/>
</g>
<path class="st1" d="M12.4,5.7c-0.3-0.3-0.7-0.3-1-0.2c0.1,0,0.2,0.1,0.3,0.2c0.4,0.4,0.4,1,0,1.4l-0.6,0.6
	c-0.1,0.1-0.2,0.2-0.3,0.2c0.3,0.1,0.8,0,1-0.2l0.6-0.6C12.8,6.8,12.8,6.1,12.4,5.7z"/>
<path class="st2" d="M6.9,9L7,10l-0.4,0.8l0,0L6,16H4.8l0-5.4c0-0.1,0-0.2,0-0.3c-0.1,0-0.2-0.1-0.2-0.1c0,0-0.1-0.1-0.1-0.1l-2-2.9
	C2,6.6,2,6,2.3,5.6l1.5-2.2l0.6,0.5l0.1,0L3.6,5.8C3.5,6,3.6,6.2,3.7,6.3c0.5,0.4,1.3,1.1,1.3,1.1C6.8,8.9,6.9,9,6.9,9L6.9,9z"/>
<path class="st3" d="M12.6,9.6L12.6,9.6l-2,0.1L10.3,10c-0.5,0.7-1.1,0.8-2,0.8H6.6L6.9,9H7c0.8,0,1.5-0.7,1.5-1.5L7.8,6.5l0,0
	l0.9-0.6l0,0l1.8,1.9c0.3,0.3,0.8,0.5,1.2,0.5h0.9L12.6,9.6z"/>
<path class="st4" d="M10.6,9.7L10.3,10c-0.5,0.7-1.1,0.8-2,0.8H7.4c0.4,0,0.8,0,1.1-0.1c0.3-0.1,0.6-0.3,0.8-0.6
	c0.2-0.2,0.4-0.3,0.7-0.3L10.6,9.7z"/>
</svg>
